<svg xmlns="http://www.w3.org/2000/svg" viewBox="0 0 32 32">
  <defs>
    <linearGradient id="grad" x1="0%" y1="0%" x2="100%" y2="100%">
      <stop offset="0%" style="stop-color:#06b6d4;stop-opacity:1" />
      <stop offset="100%" style="stop-color:#2563eb;stop-opacity:1" />
    </linearGradient>
  </defs>
  <rect width="32" height="32" rx="8" fill="url(#grad)"/>
  <!-- Brain icon simplified -->
  <path d="M8 12c0-2.2 1.8-4 4-4s4 1.8 4 4c0 .5-.1 1-.3 1.4.7.3 1.3.9 1.3 1.6 0 1.1-.9 2-2 2-.3 0-.6-.1-.8-.2-.4.7-1.2 1.2-2.2 1.2s-1.8-.5-2.2-1.2c-.2.1-.5.2-.8.2-1.1 0-2-.9-2-2 0-.7.6-1.3 1.3-1.6-.2-.4-.3-.9-.3-1.4z M16 16c0-1.1.9-2 2-2s2 .9 2 2-.9 2-2 2-2-.9-2-2z M20 20c0-1.1.9-2 2-2s2 .9 2 2-.9 2-2 2-2-.9-2-2z" fill="white" opacity="0.9"/>
  <circle cx="12" cy="12" r="1.5" fill="white"/>
  <circle cx="18" cy="16" r="1" fill="white"/>
  <circle cx="22" cy="20" r="1" fill="white"/>
</svg>